<?xml version="1.0" encoding="utf-8"?>
<!-- Generator: Adobe Illustrator 19.2.1, SVG Export Plug-In . SVG Version: 6.00 Build 0)  -->
<svg version="1.1" id="Capa_1" xmlns="http://www.w3.org/2000/svg" xmlns:xlink="http://www.w3.org/1999/xlink" x="0px" y="0px"
	 viewBox="0 0 449.5 449.5" style="enable-background:new 0 0 449.5 449.5;" xml:space="preserve">
<style type="text/css">
	.st0{fill:none;stroke:#00CC99;stroke-width:4;stroke-linecap:round;stroke-linejoin:round;stroke-miterlimit:10;}
	.st1{fill:none;stroke:#333333;stroke-width:8;stroke-linecap:round;stroke-linejoin:round;stroke-miterlimit:10;}
	.st2{fill:none;stroke:#333333;stroke-width:4;stroke-linecap:round;stroke-linejoin:round;stroke-miterlimit:10;}
	.st3{fill:none;stroke:#00CC99;stroke-width:8;stroke-linecap:round;stroke-linejoin:round;stroke-miterlimit:10;}
	.st4{fill:none;stroke:#333333;stroke-width:2;stroke-linecap:round;stroke-linejoin:round;stroke-miterlimit:10;}
	.st5{fill:none;stroke:#00CC99;stroke-width:6;stroke-linecap:round;stroke-linejoin:round;stroke-miterlimit:10;}
	.st6{fill:none;stroke:#333333;stroke-linecap:round;stroke-linejoin:round;stroke-miterlimit:10;}
	.st7{fill:none;stroke:#333333;stroke-linejoin:round;stroke-miterlimit:10;}
</style>
<g>
	<line class="st0" x1="333.2" y1="172.6" x2="365.7" y2="155.3"/>
	<path class="st1" d="M81.6,259.8c12.4,0,23.5,13.2,29.3,27.7c5.7,14.3,7.8,30.9-4.6,30.9s-23.3-16.4-29.1-30.9
		C71.4,273,69.2,259.8,81.6,259.8z"/>
	<g>
		<path class="st1" d="M41.9,355.5c28.4-19.5,13.3-65.3,13-99.8c-0.5-55.6,29.6-109.3,82.5-136.4S250.2,99.1,295,131.8
			c27.8,20.3,106.5,165.1,138.8,153.5"/>
		<path class="st2" d="M40.6,219.5c-0.5,2.2-0.9,4.4-1.2,6.8"/>
		<path class="st2" d="M90,131.1c-17.3,16.3-31,36.3-40.1,58.3c-2,4.8-3.8,9.8-5.3,14.8"/>
		<path class="st2" d="M299.7,112.3c-14-9.1-29.4-16.2-45.5-20.9c-26.1-7.7-53.7-8.9-80.3-3.7c-24,4.7-46.8,14.7-66.7,28.9"/>
		<path class="st1" d="M276.5,297.3c0,0,3.5-2.6-4.4-24c-7.7-20.8-11.4-26.2-22.6-45.8c0,0-29.9,14.3-52.7,24.1
			c-33.6,14.3-45.3,21.7-51.5,30.6c-6.7,9.5-6.2,26.4-5.6,41c1.9,40.1-0.6,42.2-0.6,42.2"/>
		<path class="st1" d="M238.9,204.2c-23.2-40.3-38.9-80.5-76.2-61.4s-26.1,65.6-22.7,105c0,0,18.5-1.4,52.7-15.9
			C239.6,212,238.9,204.2,238.9,204.2z"/>
		<path class="st3" d="M346.8,164"/>
		<path class="st1" d="M293.7,191.5"/>
		<path class="st4" d="M139.6,266.8c0,0,21-9,33.3-15.2c10.1-5.1,52.6-23.7,75.2-36.7c12.7-7.3,51.5-28.3,51.5-28.3"/>
		<line class="st5" x1="13.4" y1="335.3" x2="100.9" y2="290.4"/>
	</g>
	<path class="st1" d="M279.1,170.9c8.6,0,16.6,9.4,20.6,19.4c4.1,10.1,5.6,21.7-3.2,21.7"/>
	<line class="st1" x1="140" y1="247.9" x2="139.3" y2="308.5"/>
	<line class="st1" x1="238.9" y1="205.5" x2="279.1" y2="170.9"/>
	<path class="st1" d="M250.7,227.4c18.9-10.5,45.7-15.4,45.7-15.4"/>
	<path class="st1" d="M139.1,170.9c0,0,3.8-22.5,23.6-39.8c14.3-12.5,45.6-27.2,58.8-27"/>
	<path class="st4" d="M223.5,227.3c24.7-12.4,70.3-52.5,63-51.5"/>
	<path class="st4" d="M223.5,227.3c30.5-12.6,77.8-27.7,77.8-27.7"/>
	<path class="st4" d="M173,251.6c-16.5,5.1-33,7.4-33,7.4"/>
	<line class="st4" x1="77.1" y1="273.9" x2="100.9" y2="269.4"/>
	<line class="st4" x1="90.9" y1="310.1" x2="110.9" y2="297.3"/>
	<line class="st4" x1="77.1" y1="288.7" x2="110.9" y2="278.8"/>
</g>
<g>
	<path class="st6" d="M386.1,143.7L386.1,143.7c-3.9,1.6-8.3,1.6-12.2,0l0,0c-0.5-0.2-1.1-0.3-1.7-0.3c-3.8,0.2-7.5,1.9-10.2,4.6
		l0,0l0,0c11.7,3.4,24.2,3.4,35.9,0l0,0l0,0c-2.7-2.8-6.3-4.4-10.2-4.6C387.2,143.4,386.7,143.5,386.1,143.7z"/>
	<path class="st6" d="M372.9,143.5c1.1-2.9,3.9-5,7.2-5c3.3,0,6.1,2.1,7.2,5"/>
	<path class="st6" d="M381.8,140c1.2,0.3,2.3,1,2.9,2.1"/>
	<path class="st6" d="M380,139.8c0.1,0,0.2,0,0.4,0"/>
	<line class="st6" x1="362.4" y1="147.8" x2="397.5" y2="147.8"/>
	<path class="st6" d="M373.7,150.3c0.7,1.3,3.3,2.2,6.4,2.2c3.1,0,5.6-0.9,6.4-2.2"/>
	<path class="st6" d="M366.5,149.2c0.1,0.9,0.9,1.7,1.9,1.7c0.7,0,1.4-0.4,1.7-1"/>
	<path class="st6" d="M390,149.8c0.3,0.6,1,1,1.7,1c1,0,1.8-0.7,1.9-1.7"/>
	<path class="st7" d="M378.4,150.6c0.3,0.6,0.9,1,1.7,1c0.7,0,1.3-0.4,1.7-1"/>
	<ellipse class="st6" cx="370.1" cy="145.9" rx="1.3" ry="0.8"/>
	<ellipse class="st6" cx="389.9" cy="145.9" rx="1.3" ry="0.8"/>
</g>
</svg>
